<?xml version="1.0" encoding="utf-8"?>
<!-- Generator: Adobe Illustrator 25.2.0, SVG Export Plug-In . SVG Version: 6.00 Build 0)  -->
<svg version="1.1" id="Layer_1" xmlns="http://www.w3.org/2000/svg" xmlns:xlink="http://www.w3.org/1999/xlink" x="0px" y="0px"
	 viewBox="0 0 161.7 157.2" style="enable-background:new 0 0 161.7 157.2;" xml:space="preserve">
<style type="text/css">
	.st0{fill:#EBEBEB;}
	.st1{fill:#E0E0E0;}
	.st2{fill:#F0F0F0;}
	.st3{fill:#F5F5F5;}
	.st4{fill:#263238;}
	.st5{fill:#E54750;}
	.st6{opacity:0.3;fill:#E54750;enable-background:new    ;}
	.st7{fill:#FFFFFF;}
	.st8{opacity:0.3;fill:#FFFFFF;enable-background:new    ;}
	.st9{opacity:0.2;enable-background:new    ;}
	.st10{fill:none;}
	.st11{font-family:'Roboto-Bold';}
	.st12{font-size:12.7953px;}
</style>
<g id="freepik--background-complete--inject-43">
	<rect x="1.8" y="133.6" class="st0" width="159.9" height="0.1"/>
	<rect x="138.8" y="138.8" class="st0" width="6.9" height="0.1"/>
	<rect x="101.2" y="137.1" class="st0" width="10.9" height="0.1"/>
	<rect x="128.7" y="135.8" class="st0" width="14.2" height="0.1"/>
	<rect x="53.6" y="137.4" class="st0" width="3.5" height="0.1"/>
	<rect x="38.5" y="137.4" class="st0" width="12.3" height="0.1"/>
	<rect x="23" y="136" class="st0" width="8.8" height="0.1"/>
	<path class="st0" d="M77.6,119.3H15.8c-1,0-1.8-0.8-1.8-1.8V30.7c0-1,0.8-1.8,1.8-1.8h61.8c1,0,1.8,0.8,1.8,1.8l0,0v86.8
		C79.5,118.5,78.6,119.3,77.6,119.3z M15.8,29c-0.9,0-1.8,0.8-1.8,1.8v86.8c0,0.9,0.8,1.8,1.8,1.8h61.8c0.9,0,1.8-0.8,1.8-1.8V30.7
		c0-0.9-0.8-1.8-1.8-1.8L15.8,29L15.8,29z"/>
	<path class="st0" d="M146.8,119.3H85.1c-1,0-1.8-0.8-1.8-1.8V30.7c0-1,0.8-1.8,1.8-1.8h61.8c1,0,1.8,0.8,1.8,1.8v86.8
		C148.6,118.5,147.8,119.3,146.8,119.3z M85,29c-0.9,0-1.8,0.8-1.8,1.8v86.8c0,0.9,0.8,1.8,1.8,1.8h61.8c0.9,0,1.8-0.8,1.8-1.8V30.7
		c0-0.9-0.8-1.8-1.8-1.8L85,29L85,29z"/>
	<path class="st0" d="M70.9,75.6l0.1-4.2l-2.6-0.8c-0.1-1.5-0.4-2.8-0.7-4.2l2.1-1.6l-1.5-3.9l-2.7,0.3c-0.6-1.3-1.4-2.5-2.2-3.7
		l1.4-2.3L62,52l-2.5,1.3c-1.1-0.9-2.2-1.8-3.5-2.5l0.4-2.7l-3.9-1.7l-1.8,2c-1.3-0.4-2.8-0.8-4.2-0.9l-0.6-2.7l-4.2-0.1l-0.8,2.6
		c-1.4,0.1-2.8,0.4-4.2,0.7l-1.6-2.1l-3.9,1.5l0.3,2.7c-1.3,0.6-2.5,1.4-3.6,2.3l-2.3-1.5l-3.1,2.9l1.3,2.5
		c-0.9,1.1-1.8,2.2-2.5,3.5l-2.7-0.4L16.8,63l2.1,1.8c-0.4,1.3-0.8,2.8-0.9,4.2l-2.7,0.7l-0.2,4.2l2.6,0.8c0.1,1.5,0.4,2.8,0.7,4.2
		l-2.1,1.6l1.5,4l2.7-0.3c0.6,1.3,1.4,2.5,2.2,3.6l-1.4,2.3l2.9,3.1l2.5-1.3c1.1,0.9,2.2,1.8,3.5,2.5l-0.4,2.7l3.9,1.8l1.8-2
		c1.3,0.4,2.8,0.8,4.2,0.9l0.6,2.7l4.2,0.2l0.8-2.6c1.5-0.1,2.8-0.4,4.2-0.7l1.6,2.1l3.9-1.5l-0.2-2.7c1.3-0.6,2.5-1.4,3.7-2.3
		l2.3,1.4l3.1-2.9l-1.3-2.5c0.9-1.1,1.8-2.2,2.5-3.5l2.7,0.4l1.8-3.9l-2.1-1.8c0.4-1.3,0.8-2.8,1-4.2L70.9,75.6z M42.5,89.2
		c-9.2-0.3-16.4-8-16.1-17.2s8-16.4,17.2-16.1s16.4,8,16.1,17.2l0,0C59.4,82.2,51.7,89.4,42.5,89.2L42.5,89.2z"/>
	<path class="st0" d="M142.9,61.6l1.1-1l-0.4-0.8c0.3-0.4,0.6-0.8,0.9-1.2l0.9,0.1l0.6-1.3l-0.7-0.6c0.2-0.5,0.3-0.9,0.3-1.5
		l0.9-0.3l0.1-1.5l-0.9-0.3c-0.1-0.5-0.1-1-0.3-1.5l0.8-0.6l-0.5-1.3l-0.9,0.1c-0.3-0.4-0.5-0.9-0.8-1.3l0.5-0.8l-1-1.1l-0.8,0.4
		c-0.4-0.3-0.8-0.6-1.2-0.9l0.1-0.9l-1.3-0.6l-0.6,0.7c-0.5-0.2-0.9-0.3-1.5-0.3l-0.3-0.9l-1.5-0.1l-0.3,0.9c-0.5,0.1-1,0.1-1.5,0.3
		l-0.6-0.8l-1.4,0.5l0.1,0.9c-0.4,0.3-0.9,0.5-1.3,0.8l-0.8-0.5l-1.1,1l0.4,0.8c-0.3,0.4-0.6,0.8-0.9,1.2l-0.9-0.1l-0.6,1.3l0.7,0.6
		c-0.2,0.5-0.3,0.9-0.3,1.5l-0.9,0.3l-0.1,1.5l0.9,0.3c0.1,0.5,0.1,1,0.3,1.5l-0.8,0.6l0.5,1.3l0.9-0.1c0.3,0.4,0.5,0.9,0.8,1.3
		l-0.5,0.8l1,1.1l0.8-0.4c0.4,0.3,0.8,0.6,1.2,0.9l-0.1,0.9l1.3,0.6l0.6-0.7c0.5,0.2,0.9,0.3,1.5,0.3l0.3,0.9l1.5,0.1l0.3-0.9
		c0.5-0.1,1-0.1,1.5-0.3l0.6,0.8l1.4-0.5l-0.1-0.9c0.4-0.3,0.9-0.5,1.3-0.8L142.9,61.6z M135.3,55.5c-0.8-0.8-0.8-2.1,0.1-2.9
		c0.8-0.8,2.1-0.8,2.9,0.1c0.8,0.9,0.8,2.1-0.1,2.9l0,0C137.4,56.4,136.1,56.4,135.3,55.5C135.3,55.5,135.3,55.5,135.3,55.5
		L135.3,55.5z"/>
	<path class="st0" d="M104.2,104.8l-3.3-2.3l0,0c-0.3-1.2-0.8-2.3-1.3-3.5l0.8-3.3l-4.8-5.2l-3.4,0.6c-1.1-0.6-2.1-1.1-3.3-1.6l0,0
		l-2-3.5l-7-0.3l-2.3,3.3l0,0c-1.2,0.3-2.3,0.8-3.5,1.3l-3.3-0.8l-5.2,4.8l0.6,3.3l0,0c-0.6,1.1-1.1,2.1-1.6,3.3l-3.5,2l-0.3,7
		l3.3,2.3c0.3,1.2,0.8,2.3,1.3,3.5l0,0l-0.9,3.3l4.8,5.2l3.3-0.6c1.1,0.6,2.2,1.1,3.3,1.6l0,0l2,3.5l7,0.3l2.3-3.3
		c1.2-0.3,2.3-0.8,3.5-1.3l0,0l3.3,0.8l5.2-4.8l-0.6-3.3c0.6-1.1,1.1-2.1,1.6-3.3l0,0l3.5-2L104.2,104.8z M82.2,115.5
		c-4.4-0.2-7.8-3.8-7.6-8.1c0.1-4.4,3.8-7.8,8.1-7.6c4.4,0.2,7.8,3.8,7.6,8.1S86.7,115.6,82.2,115.5L82.2,115.5z"/>
	<path class="st0" d="M111.7,84.8L111.7,84.8l-5.6-0.2c-0.3,0-0.4-0.1-0.6-0.3l-1.5-2.5c-0.8-0.3-1.6-0.7-2.3-1.1l-2.4,0.4
		c-0.3,0.1-0.4-0.1-0.6-0.2l-3.8-4c-0.2-0.2-0.3-0.4-0.2-0.6l0.6-2.3c-0.4-0.8-0.7-1.6-0.9-2.4L92,69.9c-0.2-0.1-0.3-0.4-0.3-0.6
		l0.2-5.6c0-0.3,0.1-0.4,0.3-0.6l2.5-1.5c0.3-0.8,0.6-1.6,1.1-2.3l-0.4-2.4c-0.1-0.3,0.1-0.4,0.2-0.6l4-3.8c0.2-0.2,0.4-0.3,0.6-0.2
		l2.3,0.6c0.8-0.4,1.6-0.7,2.4-0.9l1.6-2.4c0.1-0.2,0.4-0.3,0.6-0.3l5.6,0.2c0.3,0,0.4,0.1,0.6,0.3l1.5,2.5c0.8,0.3,1.6,0.6,2.3,1.1
		l2.5-0.4c0.3-0.1,0.4,0.1,0.6,0.2l3.8,4c0.2,0.2,0.3,0.4,0.2,0.6l-0.6,2.3c0.4,0.8,0.7,1.6,0.9,2.3l2.4,1.6
		c0.2,0.1,0.3,0.4,0.3,0.6l-0.2,5.6c0,0.3-0.1,0.4-0.3,0.6l-2.5,1.5c-0.3,0.8-0.6,1.6-1.1,2.3l0.4,2.4c0.1,0.3-0.1,0.4-0.2,0.6
		l-4.1,3.7c-0.2,0.2-0.4,0.3-0.6,0.2l-2.3-0.6c-0.8,0.4-1.6,0.7-2.4,0.9l-1.6,2.4C112.1,84.7,111.9,84.8,111.7,84.8z M106.6,83.3
		l4.8,0.2l1.6-2.3c0.1-0.1,0.3-0.3,0.4-0.3c0.9-0.3,1.8-0.6,2.6-1l0,0c0.2-0.1,0.3-0.1,0.5-0.1l2.2,0.6l3.5-3.3l-0.4-2.3
		c-0.1-0.2,0-0.3,0.1-0.5c0.5-0.8,0.9-1.6,1.1-2.5c0.1-0.2,0.2-0.3,0.3-0.4l2.4-1.5l0.2-4.8l-2.3-1.6c-0.1-0.1-0.3-0.2-0.3-0.4
		c0-0.1,0-0.1,0-0.1c-0.3-0.9-0.6-1.7-1-2.6c-0.1-0.2-0.1-0.3-0.1-0.5l0.6-2.3l-3.3-3.5l-2.3,0.4c-0.2,0.1-0.3,0-0.5-0.1
		c-0.8-0.5-1.6-0.9-2.5-1.2c-0.1-0.1-0.1-0.1-0.2-0.1c-0.1-0.1-0.2-0.1-0.3-0.3l-1.5-2.5l-4.8-0.2l-1.6,2.3
		c-0.1,0.1-0.3,0.3-0.4,0.3c-0.9,0.3-1.8,0.6-2.6,1c-0.2,0.1-0.3,0.1-0.5,0.1l-2.3-0.6l-3.5,3.3l0.4,2.3c0.1,0.2,0,0.3-0.1,0.4
		L97,59.6c-0.5,0.8-0.9,1.6-1.1,2.5c-0.1,0.2-0.2,0.3-0.3,0.4L93.2,64L93,68.8l2.3,1.6c0.1,0.1,0.3,0.3,0.3,0.4
		c0.3,0.9,0.6,1.8,1,2.6c0.1,0.1,0.1,0.1,0.1,0.2c0.1,0.1,0.1,0.3,0,0.3L96,76.1l3.3,3.5l2.3-0.4c0.2-0.1,0.3,0,0.5,0.1
		c0.8,0.5,1.6,0.9,2.5,1.2c0.2,0.1,0.3,0.2,0.4,0.3L106.6,83.3z M114.4,53L114.4,53z M109.5,77.3c-0.1,0-0.3,0-0.4,0
		c-5.6-0.1-10-4.7-9.9-10.3c0.1-5.6,4.7-10,10.3-9.9c5.6,0.1,10,4.7,9.9,10.3C119.3,72.8,115,77.2,109.5,77.3z M109.5,58.4
		c-4.9,0.1-8.7,4.1-8.7,9c0.1,4.9,4.1,8.7,9,8.7c4.9-0.1,8.7-4.1,8.7-9c-0.1-4.7-3.9-8.6-8.7-8.7H109.5L109.5,58.4z"/>
	<polygon class="st1" points="124.4,44.9 122.2,44.4 121.5,42 122.4,41.1 123.4,43.2 125.4,44 	"/>
	<path class="st1" d="M124.6,43.4c0.4-0.4,0.4-1.1,0-1.5c-0.4-0.4-1.1-0.4-1.5,0l0,0l1.1-1.7l1.5,0.8l0.3,1.6L124.6,43.4z"/>
	<path class="st2" d="M122.3,41.3l1.7-1.7l2.3,0.6l0.6,2.3l-1.7,1.7l-2.3-0.6L122.3,41.3z M125.3,42.7c0.4-0.4,0.4-1.1,0-1.5
		s-1.1-0.4-1.5,0c-0.4,0.4-0.4,1.1,0,1.5S124.9,43.2,125.3,42.7L125.3,42.7z"/>
	<polygon class="st1" points="30.7,106.2 31.9,105.9 32.2,104.6 31.7,104.2 31.2,105.2 30.2,105.7 	"/>
	<path class="st1" d="M30.6,105.4c-0.3-0.3-0.2-0.6,0.1-0.8c0.3-0.2,0.6-0.2,0.8,0l-0.6-0.9L30,104l-0.2,0.9L30.6,105.4z"/>
	<path class="st2" d="M31.9,104.2l-0.9-0.9l-1.2,0.3l-0.3,1.3l0.9,0.9l1.2-0.3L31.9,104.2z M30.2,105c-0.3-0.3-0.3-0.6-0.1-0.8
		c0.3-0.3,0.6-0.3,0.8-0.1c0.1,0.1,0.1,0.1,0.1,0.1c0.3,0.3,0.2,0.6-0.1,0.8C30.8,105.2,30.4,105.2,30.2,105z"/>
	<path class="st2" d="M26.2,38.7l1,1c0.3,0.3,0.7,0.3,0.9,0l0,0c0.3-0.3,0.3-0.7,0-0.9l-1-1c-0.3-0.3-0.7-0.3-0.9,0l0,0
		C26,38,26,38.4,26.2,38.7z"/>
	<path class="st1" d="M25.5,36.2c0.8-0.3,1.5,0.3,1.8,1c0.3,0.8-0.3,1.5-1,1.8c-0.8,0.2-1.5-0.2-1.7-0.9
		C24.3,37.2,24.7,36.4,25.5,36.2L25.5,36.2z"/>
	
		<rect x="24.4" y="37.2" transform="matrix(0.9411 -0.3381 0.3381 0.9411 -11.1284 10.9985)" class="st2" width="3.2" height="0.4"/>
</g>
<g id="freepik--Shadow--inject-43">
	<ellipse id="freepik--path--inject-43" class="st3" cx="81.8" cy="144.4" rx="62" ry="3.6"/>
</g>
<g id="freepik--error-404--inject-43">
	<path class="st4" d="M43,66.1L43,66.1c-1.5-0.6-2.3-1.1-2.8-1.8c-0.4,0.1-0.7,0.1-1-0.1c-0.4-0.2-0.7-0.5-0.9-0.8
		c-0.3,0.2-0.5,0.3-0.8,0.1c-0.4-0.2-0.8-0.4-0.9-0.8c-0.1,0.1-0.3,0.2-0.5,0.1c-0.9-0.1-2.2-2-2.3-4c0-0.1,0.1-0.2,0.2-0.2
		s0.2,0.1,0.2,0.2l0,0c0.1,1.9,1.3,3.6,2,3.7c0.1,0,0.3-0.1,0.3-0.1c-0.5-0.9-0.6-2-0.3-3c0.3-0.9,0.5-1.3,0.8-1.3
		c0.6,0.1,0.5,2.2,0.2,3.6C37,62,37,62.3,36.8,62.5c0.2,0.3,0.5,0.6,0.8,0.7c0.2,0.1,0.4,0.1,0.6-0.1c-0.3-0.6-0.3-1.5,0.1-2.5
		c0.4-1.4,0.6-1.5,0.8-1.5c0.1,0,0.2,0,0.2,0.1c0.3,0.4-0.1,2.5-0.4,3.6c-0.1,0.1-0.1,0.3-0.2,0.4c0.2,0.4,0.4,0.6,0.8,0.8
		c0.3,0.1,0.5,0.2,0.8,0.1c-0.1-0.1-0.1-0.1-0.1-0.2c-0.3-0.7-0.1-1.5,0.4-2.5c0.4-0.6,0.6-0.9,0.9-0.9l0,0c0.1,0,0.3,0.1,0.3,0.3
		c0.3,0.5,0.1,2.2-0.5,3.1c-0.1,0.2-0.3,0.4-0.5,0.4c0.4,0.6,1.3,1.1,2.6,1.6c0.1,0.1,0.1,0.1,0.1,0.2l0,0
		C43.1,66.1,43,66.1,43,66.1z M41.1,60.9c0,0-0.2,0-0.6,0.8c-0.4,0.9-0.6,1.6-0.4,2.1c0.1,0.1,0.1,0.2,0.1,0.3
		c0.2-0.1,0.3-0.2,0.4-0.4c0.4-0.7,0.7-2.1,0.5-2.7C41.2,60.9,41.1,60.9,41.1,60.9z M38.9,59.5c-0.2,0.4-0.3,0.8-0.4,1.1
		c-0.3,0.7-0.3,1.4-0.1,2.1l0.1-0.1C38.7,61.7,38.9,60.6,38.9,59.5L38.9,59.5z M36.7,58.6c-0.1,0.1-0.3,0.3-0.4,1
		c-0.3,0.9-0.2,1.8,0.3,2.7c0.1-0.1,0.1-0.3,0.1-0.4C37,60.2,36.9,58.8,36.7,58.6L36.7,58.6z"/>
	<path class="st4" d="M55.2,82.9c-0.5,0-1-0.1-1.5-0.4c-0.1-0.1-0.1-0.1-0.1-0.3c0.1-0.1,0.1-0.1,0.3-0.1l0,0
		c1.1,0.7,2.7,0.2,2.9-0.3c0.1-0.1,0.1-0.1,0.1-0.3c-0.6,0.1-1.1-0.1-1.6-0.5c-0.8-0.5-0.9-0.7-0.9-0.8c0-0.1,0.1-0.1,0.1-0.2
		c0.3-0.2,1.8,0.5,2.3,0.9c0.1,0.1,0.1,0.1,0.2,0.2c0.3-0.1,0.4-0.2,0.6-0.4c0.1-0.1,0.2-0.3,0.2-0.4h-0.1c-0.5,0.1-1-0.2-1.6-0.7
		c-0.4-0.4-0.5-0.6-0.5-0.8c0.1-0.1,0.1-0.2,0.3-0.2c0.4-0.1,1.5,0.4,2,0.8c0.1,0.1,0.2,0.3,0.2,0.4c0.4-0.2,0.9-0.6,1.4-1.4
		c0.1-0.1,0.2-0.1,0.3-0.1l0,0c0.1,0.1,0.1,0.2,0.1,0.3c-0.6,0.8-1.1,1.3-1.6,1.5c-0.1,0.3-0.1,0.4-0.3,0.6
		c-0.2,0.3-0.4,0.4-0.7,0.4c0.1,0.2,0,0.3-0.1,0.4C56.7,82.6,56,82.9,55.2,82.9z M54.8,80.7c0.1,0.1,0.3,0.2,0.5,0.3
		c0.4,0.3,0.8,0.4,1.1,0.4C56,81.1,55.4,80.9,54.8,80.7z M56,79.3c0.1,0.2,0.3,0.3,0.4,0.4c0.5,0.4,0.9,0.6,1.3,0.6h0.1
		c-0.1-0.1-0.1-0.2-0.1-0.3C57.2,79.6,56.2,79.3,56,79.3z"/>
	<path class="st5" d="M59.3,82.5l-5,0.9l-4.5-24.7l-9.6,1.8L24.5,88.2l1.7,9.2l20.1-3.7l1.4,7.5l9.6-1.8L56,92l5-0.9L59.3,82.5z
		 M34.1,87.1l8.3-14.6l2.3,12.6L34.1,87.1z"/>
	<path class="st5" d="M99.5,57c-0.2-1.6-0.5-3.1-1-4.5c-0.6-1.4-1.3-2.7-2.2-3.9c-1.1-1.4-2.5-2.5-4-3.3c-1.7-0.9-4-1.6-6.8-2
		c-5.9-0.8-10.4,0.3-13.7,3.1c-3.3,2.8-5.4,8.3-6.4,16.3c-0.4,3-0.5,6.1-0.3,9c0.3,2.8,0.8,5,1.5,6.7c1,2.3,2.7,4.2,4.7,5.7
		c2,1.4,4.8,2.3,8.3,2.8c6.3,0.8,10.9-0.4,14-3.6c3-3.2,5.1-8.7,6-16.4C99.9,63.7,99.9,60.3,99.5,57z"/>
	<path class="st4" d="M82.4,83.7c-0.8-0.1-1.6-0.1-2.5-0.2c-3-0.4-5.2-1.1-6.8-2.2c-1.5-1.1-2.8-2.6-3.5-4.3l-0.1-0.1
		c-0.6-1.3-1-3.2-1.2-5.4c-0.2-2.8-0.1-5.6,0.3-8.3c1.1-8.8,3.5-12.6,5.3-14.1c2.1-1.8,4.9-2.7,8.5-2.5c0.8,0.1,1.6,0.1,2.3,0.2
		c2.3,0.3,4.2,0.8,5.6,1.6c1.1,0.6,2.1,1.4,3,2.4c0.7,0.9,1.3,1.9,1.7,3c0.4,1.2,0.7,2.5,0.8,3.7c0.4,3,0.3,6.1-0.1,9.2
		c-0.9,6.9-2.6,11.7-5.1,14.4C89,82.9,86.2,83.8,82.4,83.7L82.4,83.7z"/>
	<path class="st5" d="M88.6,57.1l0.1-1.2l-0.8-0.3c-0.1-0.4-0.1-0.8-0.2-1.2l0.6-0.5l-0.4-1.1l-0.7,0.1c-0.2-0.4-0.4-0.7-0.6-1.1
		l0.4-0.7l-0.8-0.9l-0.7,0.4c-0.3-0.3-0.6-0.5-1-0.8l0.1-0.8l-1.1-0.5l-0.5,0.6c-0.4-0.1-0.8-0.3-1.2-0.3l-0.2-0.8l-1.2-0.1
		l-0.3,0.8c-0.4,0.1-0.8,0.1-1.2,0.2l-0.5-0.6l-1.1,0.4l0.1,0.8c-0.4,0.2-0.7,0.4-1.1,0.6l-0.7-0.4l-0.9,0.8l0.4,0.7
		c-0.3,0.3-0.5,0.6-0.7,1l-0.8-0.1l-0.5,1.1l0.6,0.5c-0.1,0.4-0.3,0.8-0.3,1.2l-0.8,0.2l-0.1,1.2l0.8,0.3c0.1,0.4,0.1,0.8,0.2,1.2
		l-0.6,0.4l0.4,1.1l0.8-0.1c0.2,0.4,0.4,0.7,0.6,1.1l-0.4,0.7l0.8,0.9l0.7-0.4c0.3,0.3,0.6,0.5,1,0.7l-0.1,0.8l1.1,0.5l0.5-0.6
		c0.4,0.1,0.8,0.3,1.2,0.3l0.2,0.8l1.2,0.1l0.3-0.8c0.4-0.1,0.8-0.1,1.2-0.2l0.4,0.6l1.1-0.4l-0.1-0.8c0.4-0.2,0.7-0.4,1.1-0.6
		l0.7,0.4l0.9-0.8l-0.4-0.7c0.3-0.3,0.5-0.6,0.7-1l0.8,0.1l0.5-1.1l-0.6-0.5c0.1-0.4,0.3-0.8,0.3-1.2L88.6,57.1z M80.4,61
		c-2.7-0.1-4.7-2.3-4.6-5c0.1-2.7,2.3-4.7,5-4.6c2.7,0.1,4.7,2.3,4.6,5C85.3,59,83.1,61.1,80.4,61L80.4,61L80.4,61z"/>
	<path class="st6" d="M93.7,79.4l0.1-0.8l-0.5-0.2c0-0.3-0.1-0.6-0.1-0.8l0.4-0.3l-0.3-0.8h-0.6c-0.1-0.3-0.3-0.5-0.4-0.8l0.3-0.4
		l-0.5-0.6l-0.5,0.2c-0.2-0.2-0.4-0.4-0.6-0.6l0.1-0.5l-0.7-0.4l-0.4,0.4c-0.3-0.1-0.5-0.2-0.8-0.3L89.3,73l-0.8-0.1l-0.2,0.5
		c-0.3,0-0.6,0.1-0.8,0.1L87.1,73l-0.8,0.3v0.6c-0.3,0.1-0.5,0.3-0.8,0.4l-0.4-0.3l-0.6,0.5l0.2,0.5c-0.2,0.2-0.4,0.4-0.6,0.6
		l-0.5-0.1l-0.4,0.7l0.4,0.4c-0.1,0.3-0.2,0.5-0.3,0.8l-0.5,0.1l-0.1,0.8l0.5,0.2c0,0.3,0.1,0.6,0.1,0.8l-0.4,0.3l0.3,0.8h0.6
		c0.1,0.3,0.3,0.5,0.4,0.8l-0.3,0.4l0.5,0.6l0.5-0.2c0.2,0.2,0.4,0.4,0.6,0.6l-0.1,0.5l0.7,0.4l0.4-0.4c0.3,0.1,0.5,0.2,0.8,0.3
		l0.1,0.5l0.8,0.1l0.2-0.5c0.3,0,0.6-0.1,0.8-0.1l0.3,0.4l0.8-0.3v-0.5c0.3-0.1,0.5-0.3,0.8-0.4l0.4,0.3l0.6-0.5L91.8,82
		c0.2-0.2,0.4-0.4,0.6-0.6l0.5,0.1l0.4-0.7l-0.4-0.4c0.1-0.3,0.2-0.5,0.3-0.8L93.7,79.4z M89.5,79c-0.4,0.7-1.3,0.9-2,0.6
		c-0.7-0.4-0.9-1.3-0.6-2s1.3-0.9,2-0.6l0,0C89.6,77.5,89.9,78.3,89.5,79z"/>
	<path class="st7" d="M98.2,65.5l-0.9-0.7l0,0c-0.1-0.4-0.3-0.7-0.4-1l0.3-0.9l-1.4-1.5l-0.9,0.2c-0.3-0.2-0.6-0.3-0.9-0.4l0,0
		l-0.6-1l-2-0.1L90.5,61l0,0c-0.4,0.1-0.7,0.3-1,0.4l-0.9-0.3L87,62.5l0.2,0.9l0,0c-0.2,0.3-0.3,0.6-0.4,0.9l-1,0.6l-0.1,2l0.9,0.7
		c0.1,0.4,0.3,0.7,0.4,1l0,0l-0.3,0.9l1.4,1.5l0.9-0.2c0.3,0.2,0.6,0.3,0.9,0.4l0,0l0.6,1l2,0.1l0.6-0.9c0.4-0.1,0.7-0.3,1-0.4l0,0
		l0.9,0.3l1.5-1.4l-0.2-0.9c0.2-0.3,0.3-0.6,0.4-0.9l0,0l1-0.6L98.2,65.5z M91.9,68.6c-1.3-0.1-2.2-1.1-2.2-2.3
		c0.1-1.3,1.1-2.2,2.3-2.2c1.3,0.1,2.2,1.1,2.2,2.3l0,0C94.2,67.7,93.1,68.7,91.9,68.6L91.9,68.6z"/>
	<path class="st5" d="M105.1,49.3l0.2-0.4l0,0c0.1-0.1,0.3-0.1,0.3-0.3h0.4l0.4-0.6l-0.1-0.4c0.1-0.1,0.1-0.3,0.1-0.4l0,0l0.3-0.3
		l-0.1-0.8l-0.4-0.2l0,0c-0.1-0.1-0.1-0.3-0.3-0.3v-0.4l-0.6-0.4l-0.4,0.1l0,0c-0.1-0.1-0.3-0.1-0.4-0.1l-0.3-0.3l-0.8,0.1l-0.2,0.4
		c-0.1,0.1-0.3,0.1-0.3,0.3l0,0h-0.4l-0.4,0.6l0.1,0.4c-0.1,0.1-0.1,0.3-0.1,0.4l0,0l-0.3,0.3l0.1,0.8l0.4,0.2
		c0.1,0.1,0.1,0.3,0.3,0.3l0,0v0.4l0.6,0.4l0.4-0.1c0.1,0.1,0.3,0.1,0.4,0.1l0,0l0.3,0.3L105.1,49.3z M103.5,47.3
		c-0.1-0.5,0.3-0.9,0.7-1c0.5-0.1,0.9,0.3,1,0.7c0.1,0.5-0.3,0.9-0.7,1l0,0C104,48.1,103.6,47.8,103.5,47.3z"/>
	<path class="st5" d="M96.4,47.3l-0.3-0.2c0.6-0.6,1.2-1.2,1.9-1.6l0.2,0.3C97.5,46.1,96.9,46.6,96.4,47.3z"/>
	<path class="st5" d="M98.9,45.4l-0.1-0.3c1.2-0.5,2.5-0.8,3.7-0.6l-0.1,0.3C101.3,44.7,100.1,44.9,98.9,45.4z"/>
	<path class="st5" d="M98.3,47.6l-0.3-0.2c0.8-1.1,1.9-1.8,3.2-2l0.1,0.3C100.1,46,99,46.7,98.3,47.6z"/>
	<path class="st7" d="M77.1,78.5c-0.1,0-0.1-0.1-0.1-0.1l-0.7-0.7c-0.4-0.1-0.7-0.1-1-0.2L74.2,78C74.1,78,74,78,74,78l-1.8-1.1
		c-0.1-0.1-0.1-0.1-0.1-0.1v-1.1c-0.3-0.3-0.4-0.6-0.6-0.9l-0.9-0.4c-0.1-0.1-0.1-0.1-0.1-0.1l-0.4-2c0-0.1,0-0.1,0.1-0.2l0.7-0.7
		c0.1-0.4,0.1-0.7,0.2-1l-0.4-1.1c-0.1-0.1-0.1-0.1,0-0.2l1.1-1.8c0.1-0.1,0.1-0.1,0.1-0.1l1.1,0.1c0.3-0.3,0.6-0.4,0.9-0.6l0.4-0.9
		c0.1-0.1,0.1-0.1,0.1-0.1l2-0.4c0.1,0,0.1,0,0.2,0.1l0.7,0.7c0.4,0.1,0.7,0.1,1,0.2l1.1-0.4c0.1-0.1,0.1-0.1,0.2,0l1.8,1.1
		c0.1,0.1,0.1,0.1,0.1,0.1l-0.1,1.1c0.3,0.3,0.4,0.6,0.6,0.9l0.9,0.4c0.1,0.1,0.1,0.1,0.1,0.1l0.4,2c0,0.1,0,0.1-0.1,0.2l-0.7,0.7
		c-0.1,0.4-0.1,0.7-0.2,1l0.4,1.1c0.1,0.1,0.1,0.1,0,0.2l-1.1,1.7c-0.1,0.1-0.1,0.1-0.1,0.1h-1.1c-0.3,0.3-0.6,0.4-0.9,0.6l-0.4,0.9
		C79.2,78,79.2,78,79.1,78L77.1,78.5L77.1,78.5L77.1,78.5z M75.3,77.2L75.3,77.2c0.4,0.1,0.8,0.2,1.1,0.2c0.1,0,0.1,0.1,0.1,0.1
		l0.6,0.7l1.9-0.4l0.4-0.9c0-0.1,0.1-0.1,0.1-0.1c0.3-0.2,0.6-0.4,0.9-0.6c0.1-0.1,0.1-0.1,0.1-0.1l1.1,0.1l1.1-1.6l-0.4-1
		c0-0.1,0-0.1,0-0.1c0.1-0.4,0.2-0.7,0.2-1.1c0-0.1,0.1-0.1,0.1-0.1l0.7-0.6l-0.4-1.9l-0.9-0.4c-0.1,0-0.1-0.1-0.1-0.1
		c-0.2-0.3-0.4-0.6-0.6-0.9c-0.1-0.1-0.1-0.1-0.1-0.1v-1.1l-1.6-1.1l-1,0.4c-0.1,0-0.1,0-0.1,0c-0.4-0.1-0.7-0.2-1.1-0.2
		c-0.1,0-0.1-0.1-0.1-0.1l-0.6-0.7L74.7,66l-0.3,0.9c0,0.1-0.1,0.1-0.1,0.1c-0.3,0.2-0.6,0.4-0.9,0.6c-0.1,0.1-0.1,0.1-0.1,0.1
		l-1.1-0.1l-1.1,1.6l0.4,1c0.1,0.1,0.1,0.1,0,0.1c-0.1,0.4-0.2,0.7-0.2,1c0,0.1-0.1,0.1-0.1,0.1l-0.7,0.6l0.4,1.9l0.9,0.4
		c0.1,0.1,0.1,0.1,0.1,0.1c0.2,0.3,0.4,0.6,0.6,0.9c0.1,0.1,0.1,0.1,0.1,0.1v1.1l1.6,1.1l1-0.4C75.2,77.2,75.2,77.2,75.3,77.2z
		 M76.9,76.1c-2.3,0-4.2-1.9-4.2-4.2c0-0.8,0.3-1.6,0.7-2.3l0,0c1.3-2,3.9-2.5,5.9-1.2c2,1.3,2.5,3.9,1.2,5.9
		C79.7,75.4,78.3,76.1,76.9,76.1L76.9,76.1z M73.6,69.7c-1.2,1.8-0.7,4.2,1.1,5.5c1.8,1.2,4.2,0.7,5.5-1.1c1.2-1.8,0.7-4.2-1.1-5.5
		C77.3,67.4,74.8,67.9,73.6,69.7L73.6,69.7z"/>
	<path class="st5" d="M138,85.3l-5.1-0.7l3.3-24.9l-9.7-1.3L103.1,80l-1.3,9.2l20.3,2.7l-1,7.6l9.7,1.3l1-7.6l5.1,0.7L138,85.3z
		 M112.6,81.9l12.4-11.3l-1.7,12.8L112.6,81.9z"/>
	<path class="st4" d="M127.9,100.7L127.9,100.7c-0.1-0.1-0.2-0.1-0.2-0.2l7.5-40.9c0.1-0.1,0.1-0.1,0.2-0.1c0.1,0.1,0.1,0.1,0.1,0.2
		l-7.5,40.9C128,100.7,128,100.7,127.9,100.7z"/>
	<path class="st4" d="M134.5,60.3c0,0.2-0.1,0.3-0.3,0.3c-0.2,0-0.3-0.1-0.3-0.3s0.1-0.3,0.3-0.3C134.4,60.1,134.5,60.2,134.5,60.3z
		"/>
	<path class="st4" d="M133.5,65.9c0,0.2-0.1,0.3-0.3,0.3c-0.2,0-0.3-0.1-0.3-0.3c0-0.2,0.1-0.3,0.3-0.3
		C133.3,65.6,133.5,65.7,133.5,65.9L133.5,65.9z"/>
	<path class="st4" d="M132.4,71.4c0,0.2-0.1,0.3-0.3,0.3l0,0c-0.1,0-0.3-0.1-0.3-0.3l0,0c0-0.2,0.1-0.3,0.3-0.3l0,0
		C132.3,71.1,132.4,71.3,132.4,71.4z"/>
	<path class="st4" d="M130.3,77.2c0,0.2-0.2,0.3-0.3,0.3s-0.3-0.1-0.3-0.3c0-0.2,0.1-0.3,0.3-0.3S130.3,77,130.3,77.2
		C130.3,77.1,130.3,77.1,130.3,77.2z"/>
	<path class="st4" d="M130.2,82.5c0,0.1-0.1,0.3-0.3,0.3l0,0c-0.2,0-0.3-0.1-0.3-0.3c0-0.2,0.1-0.3,0.3-0.3
		C130.2,82.2,130.2,82.3,130.2,82.5z"/>
	<path class="st4" d="M129.2,88c0,0.2-0.1,0.3-0.3,0.3c-0.2,0-0.3-0.1-0.3-0.3c0-0.2,0.1-0.3,0.3-0.3l0,0
		C129,87.7,129.2,87.9,129.2,88z"/>
	<path class="st4" d="M128.1,93.5c0,0.2-0.1,0.3-0.3,0.3s-0.3-0.1-0.3-0.3l0,0c0-0.2,0.1-0.3,0.3-0.3
		C127.9,93.3,128.1,93.4,128.1,93.5L128.1,93.5z"/>
	<path class="st4" d="M127,99.1c0,0.2-0.1,0.3-0.3,0.3c-0.2,0-0.3-0.1-0.3-0.3c0-0.2,0.1-0.3,0.3-0.3C126.9,98.8,127,98.9,127,99.1
		L127,99.1z"/>
	<path class="st4" d="M130,77.3c-0.1,0-0.1-0.1-0.2-0.1c-0.1-0.1,0.1-0.2,0.1-0.2l0,0l0.8-0.2c0.1-0.1,0.2,0.1,0.2,0.1l0,0
		c0.1,0.1-0.1,0.2-0.1,0.2l0,0L130,77.3L130,77.3z"/>
	<path class="st4" d="M132.7,74.4c-0.4,1-0.7,2-0.9,3c-0.3,1.1-0.3,3.7-0.3,3.7"/>
	<path class="st4" d="M131.4,81.2L131.4,81.2c-0.1,0-0.2-0.1-0.2-0.2s0.1-2.6,0.3-3.7c0.3-1,0.6-2,0.9-3c0.1-0.1,0.1-0.1,0.2-0.1
		c0.1,0.1,0.1,0.1,0.1,0.2c0,0,0,0,0,0.1c-0.4,0.9-0.7,2-0.9,3c-0.3,1.1-0.3,3.6-0.3,3.6C131.6,81.1,131.5,81.2,131.4,81.2z"/>
</g>
<g id="freepik--Character--inject-43">
	<path class="st4" d="M73,108.8c0.4-7.1-0.4-20.2,13.1-18.4c14.4,1.8,10.3,18.8,10.3,18.8L73,108.8z"/>
	<ellipse class="st7" cx="82.2" cy="98.6" rx="5.9" ry="5.9"/>
	<path class="st4" d="M83,92.7c-2.8-0.5-5.7,1.6-6.1,3.7l11.1,1C87.6,95.1,85.2,93.1,83,92.7z"/>
	<path class="st4" d="M86.8,98.4c-0.1,1.5-0.9,2.8-1.9,2.7c-0.9-0.1-1.6-1.3-1.6-2.9c0.1-1.5,0.9-2.8,1.9-2.7
		C86.1,95.6,86.9,96.9,86.8,98.4z"/>
	<path class="st5" d="M82.2,104.8c-3.4,0-6.2-2.8-6.2-6.2c0-3.4,2.8-6.2,6.2-6.2c3.4,0,6.2,2.8,6.2,6.2
		C88.4,102,85.7,104.8,82.2,104.8z M82.2,93c-3.1,0-5.6,2.5-5.6,5.6c0,3.1,2.5,5.6,5.6,5.6c3.1,0,5.6-2.5,5.6-5.6l0,0
		C87.8,95.5,85.3,93,82.2,93z"/>
	<path class="st8" d="M94.7,108.6L94.7,108.6c-0.1-0.1-0.2-0.1-0.2-0.2l0,0c0-0.1,1-4.4-0.1-8.8c-0.1-0.1,0.1-0.2,0.1-0.2
		c0.1,0,0.2,0.1,0.2,0.1c1.1,4.5,0.1,8.8,0.1,8.9C94.9,108.6,94.8,108.6,94.7,108.6z"/>
	<path class="st8" d="M93.9,97.3c-0.1,0-0.1-0.1-0.2-0.1c-0.4-0.9-0.9-1.7-1.5-2.5c-0.1-0.1-0.1-0.2,0.1-0.3
		c0.1-0.1,0.2-0.1,0.3,0.1l0,0c0.6,0.8,1.1,1.6,1.6,2.5c0.1,0.1,0,0.2-0.1,0.3l0,0C93.9,97.2,93.9,97.3,93.9,97.3z"/>
	<path class="st4" d="M43,142.4h-0.1c-0.9-0.1-1.6-0.8-1.6-1.6c0.1-0.9,0.8-1.6,1.6-1.6H43c0.9,0,3.2-1.1,7.8-8.5
		c0.5-0.8,1.5-0.9,2.2-0.5c0.1,0.1,0.1,0.1,0.2,0.2c3.7,3.2,7.6,5.9,11.9,8.1c0.8,0.4,1.1,1.3,0.8,2.1c-0.4,0.8-1.3,1.1-2.1,0.8
		c-0.1-0.1-0.1-0.1-0.1-0.1c-3.9-2.1-7.7-4.5-11.1-7.4C48.6,139.9,45.7,142.4,43,142.4z"/>
	<path class="st4" d="M52.9,130.1h-0.2c-0.5-0.1-0.9-0.6-0.8-1.1c0.3-1.6-0.1-7.6-2.1-12.2c-0.2-0.4-0.1-0.9,0.4-1.2
		c4.4-3,13.7-3.3,14.1-3.3c0.6-0.1,0.9,0.4,1,0.9s-0.4,0.9-0.9,1c-0.1,0-8.3,0.3-12.4,2.7c1.8,4.6,2.2,10.4,1.9,12.4
		C53.8,129.7,53.3,130.1,52.9,130.1z"/>
	<path class="st5" d="M54.5,128.8c-0.6-1.5-3.5-1.3-5.2-0.1c-0.9,0.7-2.1,2.8-2.2,3.5c-0.1,0.6,0.3,1.2,0.9,1.3
		c0.1,0.1,0.3,0.1,0.4,0c1.1-0.1,2.7-1.7,2.7-1.7c-1,1,0.3,1.7,2.2,0.3C54.2,131.4,55.2,130.6,54.5,128.8z"/>
	<path class="st4" d="M109.5,109.2L109.5,109.2c-0.1-0.1-0.2-0.1-0.1-0.2l0,0c0.4-1.5,0.9-2.4,1.5-2.9c-0.1-0.4-0.1-0.7,0.1-1.1
		c0.2-0.4,0.4-0.8,0.8-0.9c-0.2-0.2-0.3-0.5-0.2-0.8c0.1-0.4,0.4-0.8,0.7-1c-0.1-0.1-0.2-0.3-0.2-0.5c0-0.9,1.8-2.4,3.8-2.7
		c0.1,0,0.2,0.1,0.2,0.1c0.1,0.1-0.1,0.2-0.1,0.2c-1.9,0.3-3.5,1.6-3.5,2.3c0,0.1,0.1,0.3,0.1,0.3c0.9-0.6,2-0.8,3-0.6
		c1,0.2,1.4,0.4,1.3,0.7c-0.1,0.6-2.1,0.7-3.6,0.5c-0.3-0.1-0.5-0.1-0.7-0.2c-0.3,0.3-0.5,0.5-0.6,0.9c-0.1,0.2,0,0.4,0.2,0.5
		c0.6-0.3,1.5-0.4,2.5-0.2c1.5,0.3,1.5,0.5,1.5,0.6c0.1,0.1,0,0.2-0.1,0.3c-0.3,0.3-2.5,0.2-3.7-0.1c-0.1-0.1-0.3-0.1-0.4-0.2
		c-0.3,0.2-0.6,0.5-0.8,0.9c-0.1,0.3-0.1,0.5-0.1,0.8c0.1-0.1,0.1-0.1,0.2-0.1c0.7-0.3,1.5-0.3,2.5,0.2c0.6,0.3,0.9,0.5,1,0.8
		c0,0.1-0.1,0.3-0.2,0.3c-0.5,0.3-2.2,0.3-3.1-0.2c-0.2-0.1-0.4-0.3-0.5-0.5c-0.5,0.5-0.9,1.3-1.3,2.7
		C109.6,109.1,109.6,109.2,109.5,109.2z M111.2,106.2c0.1,0.2,0.3,0.3,0.4,0.4c0.8,0.4,2.1,0.5,2.7,0.3c0.1-0.1,0.1-0.1,0.1-0.1
		s0-0.2-0.8-0.5c-0.9-0.4-1.6-0.4-2.1-0.2C111.4,106.2,111.3,106.2,111.2,106.2L111.2,106.2z M112.3,104.2L112.3,104.2
		c1.1,0.3,2.1,0.4,3.2,0.3c-0.4-0.1-0.8-0.3-1.1-0.3C113.8,103.9,113,103.9,112.3,104.2z M112.7,102.3c0.2,0.1,0.3,0.1,0.4,0.1
		c1.6,0.2,3-0.1,3.2-0.3c-0.1-0.1-0.3-0.2-1.1-0.3C114.4,101.7,113.5,101.8,112.7,102.3z"/>
	<path class="st4" d="M67.8,141.9c0.3-0.1,0.1-0.3-0.1-0.3h-4.3c-8.3-0.9-14,0.3-10.4,0.6c3.7,0.3-0.3,0.3-2.9,1.2
		c-2.7,1,19.8,1.3,21.7,0C73.8,142.2,64.9,142.8,67.8,141.9z"/>
	<polygon class="st5" points="98.9,143.1 61.2,141.9 59.6,105.4 104.2,106.4 	"/>
	<path class="st4" d="M73,142.4c-0.1,0-0.2-0.1-0.2-0.2l-3-36.7c0-0.1,0.1-0.2,0.2-0.2c0.1,0,0.2,0.1,0.2,0.2l3,36.7
		C73.2,142.4,73.1,142.4,73,142.4L73,142.4L73,142.4z"/>
	<polygon class="st5" points="98.9,143.1 109,141.6 112.2,107.6 104.2,106.4 	"/>
	<polygon class="st9" points="98.9,143.1 109,141.6 112.2,107.6 104.2,106.4 	"/>
	<path class="st4" d="M64.4,134.8l-0.9-21.7c-0.1-2.1,1.6-4,3.7-4.1c0.1,0,0.2,0,0.3,0l28.2,0.6c2.1,0.1,3.9,1.8,3.9,4
		c0,0.2-0.1,0.3-0.1,0.5L96.3,136c-0.3,2-2,3.4-4,3.3l-24.1-0.8C66.1,138.6,64.5,136.9,64.4,134.8z"/>
	<path class="st7" d="M67.5,115.7l4.4,0.1l-0.1,1.1l-2.7-0.1l-0.1,0.8l2.5,0.1l-0.1,1.1l-2.5-0.1l-0.1,1l2.8,0.1l-0.1,1.2l-4.4-0.1
		L67.5,115.7z"/>
	<path class="st7" d="M72.6,121.1l0.2-5.3l2.7,0.1c0.4,0,0.8,0.1,1.1,0.2c0.3,0.1,0.5,0.3,0.6,0.5c0.4,0.7,0.3,1.6-0.4,2
		c-0.1,0.1-0.1,0.1-0.1,0.1c-0.2,0.1-0.4,0.2-0.6,0.2c0.2,0.1,0.3,0.1,0.4,0.2c0.1,0.1,0.2,0.2,0.3,0.3c0.1,0.1,0.2,0.2,0.3,0.3
		l0.8,1.6l-1.8-0.1l-0.8-1.6c-0.1-0.2-0.2-0.3-0.3-0.4c-0.1-0.1-0.3-0.1-0.4-0.1h-0.1l-0.1,2.1L72.6,121.1z M74.4,118.1l0.7,0.1
		c0.2,0,0.3-0.1,0.4-0.1c0.1-0.1,0.2-0.1,0.3-0.2c0.1-0.1,0.1-0.2,0.1-0.3c0-0.2-0.1-0.3-0.2-0.4c-0.2-0.1-0.4-0.2-0.6-0.2l-0.7-0.1
		L74.4,118.1z"/>
	<path class="st7" d="M78.3,121.3l0.2-5.3l2.7,0.1c0.4,0,0.8,0.1,1.1,0.2c0.3,0.1,0.5,0.3,0.6,0.5c0.2,0.3,0.3,0.6,0.3,0.9
		c0,0.5-0.3,1-0.8,1.3c-0.2,0.1-0.4,0.2-0.6,0.2c0.2,0.1,0.3,0.1,0.4,0.2c0.1,0.1,0.2,0.2,0.3,0.3c0.1,0.1,0.2,0.2,0.3,0.3l0.8,1.5
		l-1.8-0.1l-0.8-1.6c-0.1-0.2-0.2-0.3-0.3-0.4s-0.3-0.1-0.4-0.1h-0.1l-0.1,2.1L78.3,121.3z M80.1,118.2l0.7,0.1
		c0.2,0,0.3-0.1,0.4-0.1c0.1,0,0.2-0.1,0.3-0.2c0.1-0.1,0.1-0.2,0.1-0.3c0-0.2-0.1-0.3-0.2-0.4c-0.2-0.1-0.4-0.2-0.6-0.2l-0.7-0.1
		L80.1,118.2z"/>
	<path class="st7" d="M83.8,118.9c-0.1-1.4,0.9-2.6,2.3-2.7c0.2,0,0.3,0,0.5,0c0.8-0.1,1.5,0.3,2,0.8c0.5,0.6,0.7,1.3,0.6,2
		c0,0.5-0.1,1-0.4,1.5c-0.3,0.4-0.6,0.7-0.9,0.9c-0.4,0.3-0.9,0.3-1.5,0.3c-0.5,0-1-0.1-1.5-0.3c-0.4-0.3-0.7-0.6-0.9-0.9
		C83.9,119.9,83.8,119.4,83.8,118.9z M85.4,118.9c-0.1,0.4,0.1,0.8,0.3,1.1c0.4,0.4,1.1,0.5,1.6,0.1l0.1-0.1
		c0.3-0.4,0.4-0.8,0.3-1.2c0.1-0.4-0.1-0.8-0.3-1.1c-0.2-0.3-0.5-0.4-0.8-0.4c-0.3-0.1-0.6,0.1-0.8,0.3
		C85.5,118.1,85.4,118.6,85.4,118.9L85.4,118.9z"/>
	<path class="st7" d="M90.1,121.7l0.2-5.3l2.7,0.1c0.4,0,0.8,0.1,1.1,0.2c0.3,0.1,0.5,0.3,0.6,0.5c0.2,0.3,0.3,0.6,0.3,0.9
		c0,0.5-0.3,1-0.8,1.3c-0.2,0.1-0.4,0.2-0.6,0.2c0.2,0.1,0.3,0.1,0.4,0.2c0.1,0.1,0.2,0.2,0.3,0.3c0.1,0.1,0.2,0.2,0.3,0.3l0.8,1.6
		l-1.8-0.1l-0.8-1.6c-0.1-0.2-0.2-0.3-0.3-0.4c-0.1-0.1-0.3-0.1-0.4-0.1h-0.1l-0.1,2.1L90.1,121.7z M91.8,118.6l0.7,0.1
		c0.2,0,0.3-0.1,0.4-0.1c0.1-0.1,0.2-0.1,0.3-0.2c0.1-0.1,0.1-0.2,0.1-0.3c0-0.2-0.1-0.3-0.2-0.4c-0.2-0.1-0.4-0.2-0.6-0.2l-0.7-0.1
		L91.8,118.6z"/>
	<path class="st7" d="M92.7,130.7c-0.1,0-0.3-0.1-0.3-0.1l-2.8-3l-3,2.7c-0.2,0.2-0.4,0.2-0.6-0.1l-2.8-3l-3,2.7
		c-0.2,0.2-0.4,0.2-0.6-0.1l-2.8-3l-3,2.7c-0.1,0.1-0.2,0.1-0.3,0.1c-0.1,0-0.3-0.1-0.3-0.1l-2.8-3l-3,2.7c-0.2,0.2-0.4,0.2-0.6-0.1
		c-0.2-0.2-0.2-0.4,0.1-0.6l0,0l3.3-3c0.2-0.2,0.4-0.2,0.6,0.1l2.8,3l3-2.7c0.1-0.1,0.2-0.1,0.3-0.1c0.1,0,0.3,0.1,0.3,0.1l2.8,3
		l3-2.7c0.2-0.2,0.4-0.2,0.6,0.1l0,0l2.8,3l3-2.7c0.2-0.2,0.4-0.2,0.6,0.1L93,130c0.2,0.2,0.1,0.4-0.1,0.6
		C92.9,130.6,92.7,130.7,92.7,130.7L92.7,130.7z"/>
	<polygon class="st5" points="42,143.9 40,143 38.2,134.3 39.2,133.2 	"/>
	<polygon class="st5" points="42,143.9 44.7,142.4 42.4,135.2 39.2,133.2 	"/>
	<polygon class="st9" points="42,143.9 44.7,142.4 42.4,135.2 39.2,133.2 	"/>
	<path class="st4" d="M85.6,145.5h-0.3c-0.9-0.1-1.6-0.8-1.6-1.6c0.1-0.9,0.8-1.6,1.6-1.6c2.5,0.1,7.7-1.5,10.7-4.3
		c0.2-0.2,0.4-0.3,0.6-0.4c5.1-1.5,6.9,1.5,7,1.6l-2.8,1.6c0,0.1,0.1,0.1,0.1,0.1c-0.1-0.1-0.8-0.9-3-0.4
		C94.3,143.9,88.6,145.5,85.6,145.5z"/>
	<polygon class="st5" points="85.4,147.6 79.6,147.3 79.2,136.5 87,136.8 	"/>
	<polygon class="st5" points="85.4,147.6 86.8,146.3 87.6,139.6 87,136.8 	"/>
	<polygon class="st9" points="85.4,147.6 86.8,146.3 87.6,139.6 87,136.8 	"/>
	<path class="st4" d="M119.2,143.6c-0.3,0-0.4-0.1-0.6-0.2c-3.3-2.5-7.8-7-9.5-11.4c-0.1-0.1-0.1-0.1-0.1-0.2
		c-0.8-5-1.6-15.5-1.6-16c-0.1-0.6,0.4-1,0.9-1c0.6-0.1,1,0.4,1,0.9c0,0.1,0.8,10.7,1.6,15.7c1.7,4.2,6.4,8.5,8.9,10.4
		c0.4,0.3,0.5,0.9,0.2,1.3C119.8,143.4,119.5,143.6,119.2,143.6L119.2,143.6z"/>
	<path class="st4" d="M123.6,144c-0.8,0-1.6-0.3-2.5-1c-0.4-0.3-0.5-0.9-0.3-1.3c0.3-0.4,0.9-0.5,1.3-0.3c0.8,0.6,1.2,0.6,1.4,0.6
		c0.6,0,0.9,0.4,0.9,0.9C124.6,143.6,124.1,144.1,123.6,144L123.6,144z"/>
	<path class="st5" d="M121.4,143c1-3,5.2-2.5,6.7-2c1.3,0.4,2.5,0.9,3.5,1.5c0.8,0.5,0.8,1.4-0.3,1.8c-1.3,0.6-4.5,0.1-4.5,0.1
		c1.6,0.8,0,1.9-3,0.8C122.9,144.9,121,144.1,121.4,143z"/>
	<path class="st4" d="M111.2,117.2c-0.4,2.6-2.5,4.5-4.3,4.2s-1.8-2.6-1.5-5.2c0.4-2.6,1.1-4.5,2.8-4.2
		C110,112.3,111.5,114.6,111.2,117.2z"/>
	<circle class="st4" cx="68.9" cy="106.6" r="0.3"/>
	<path class="st4" d="M71.6,108.5c0,0.2-0.1,0.3-0.3,0.3c-0.2,0-0.3-0.1-0.3-0.3c0-0.2,0.1-0.3,0.3-0.3S71.6,108.3,71.6,108.5
		L71.6,108.5z"/>
	<path class="st4" d="M71.9,139.5c0,0.2-0.1,0.3-0.3,0.3c-0.2,0-0.3-0.1-0.3-0.3c0-0.2,0.1-0.3,0.3-0.3S71.9,139.3,71.9,139.5
		L71.9,139.5z"/>
	<path class="st4" d="M74.3,141.3c0,0.2-0.1,0.3-0.3,0.3c-0.2,0-0.3-0.1-0.3-0.3c0-0.2,0.1-0.3,0.3-0.3
		C74.2,141.1,74.3,141.2,74.3,141.3L74.3,141.3z"/>
</g>
<g id="freepik--robot-parts--inject-43">
	<path class="st4" d="M28.2,144.4c-0.9-0.1-1.8-0.5-2.3-1.3c-0.1-0.1-0.1-0.2,0.1-0.3c0.1-0.1,0.2-0.1,0.3,0.1l0,0
		c0.6,0.9,1.9,1.3,2.5,1.1c0.1-0.1,0.1-0.1,0.2-0.1c-0.6-0.3-1-0.8-1.1-1.5c-0.1-0.4-0.1-0.9,0.2-1c0.4-0.1,1.1,1,1.3,1.8
		c0.1,0.1,0.1,0.3,0.1,0.4c0.2,0.1,0.4,0.1,0.6,0.1s0.3-0.1,0.4-0.3c-0.4-0.3-0.7-0.8-0.8-1.3c-0.1-0.9-0.1-1,0.1-1.1
		c0.1-0.1,0.2-0.1,0.3-0.1c0.4,0.2,0.8,1.4,0.8,2.1c0,0.1,0,0.2,0,0.3c0.1,0.1,0.3,0.1,0.4,0.1c0.3,0,0.6-0.1,0.8-0.2
		c-0.1-0.1-0.1-0.1-0.1-0.1c-0.3-0.3-0.5-0.8-0.4-1.4c0.1-0.5,0.2-0.8,0.4-0.9c0.1-0.1,0.3-0.1,0.4,0.1c0.4,0.5,0.6,1.1,0.6,1.8
		c-0.1,0.1-0.1,0.3-0.2,0.4c0.6,0.1,1.4-0.1,2.1-0.3c0.1-0.1,0.2,0.1,0.2,0.1c0.1,0.1-0.1,0.2-0.1,0.2c-0.9,0.3-1.8,0.4-2.5,0.2
		c-0.3,0.3-0.7,0.4-1.1,0.4c-0.2,0-0.4-0.1-0.5-0.1c-0.2,0.3-0.4,0.4-0.7,0.4c-0.3,0.1-0.5,0-0.7-0.1c-0.1,0.1-0.2,0.3-0.3,0.3
		C28.6,144.4,28.4,144.4,28.2,144.4z M27.9,141.8c-0.1,0.3-0.1,0.4,0.1,0.6c0.1,0.5,0.4,0.9,0.9,1.2c0-0.1-0.1-0.2-0.1-0.3
		C28.6,142.5,28.1,141.9,27.9,141.8z M29.7,141.5c0,0.3,0.1,0.4,0.1,0.7c0.1,0.4,0.2,0.8,0.5,1C30.2,142.7,30,142,29.7,141.5
		L29.7,141.5z M31.7,141.3L31.7,141.3c0,0-0.1,0.1-0.2,0.6c-0.1,0.6,0.1,0.9,0.3,1.1c0.1,0.1,0.1,0.1,0.2,0.1
		c0.1-0.1,0.1-0.2,0.2-0.3c0.1-0.5-0.1-1-0.4-1.4C31.8,141.3,31.7,141.3,31.7,141.3L31.7,141.3z"/>
	<polygon class="st4" points="75,146.9 75.9,145.4 75,143.9 74.1,143.9 74.6,145.4 74.1,146.9 	"/>
	<path class="st4" d="M74.2,146.1c-0.4,0.1-0.8-0.3-0.8-0.8c-0.1-0.4,0.3-0.8,0.8-0.8c0.1,0,0.1,0,0.1,0l-1.5-0.3l-0.4,1.2l0.7,1
		L74.2,146.1z"/>
	<path class="st5" d="M74.3,143.9h-1.7l-0.9,1.5l0.9,1.5h1.7l0.9-1.5L74.3,143.9z M73.4,146.1c-0.4,0-0.8-0.4-0.8-0.8
		c0-0.4,0.4-0.8,0.8-0.8c0.4,0,0.8,0.4,0.8,0.8l0,0C74.2,145.8,73.8,146.1,73.4,146.1L73.4,146.1z"/>
	<polygon class="st5" points="135.5,143.8 134.8,142.7 135.5,141.5 136.2,141.5 135.8,142.7 136.2,143.8 	"/>
	<path class="st5" d="M136.1,143.2c0.3,0.1,0.6-0.3,0.6-0.6c0.1-0.3-0.3-0.6-0.6-0.6c-0.1,0-0.1,0-0.1,0l1.1-0.3l0.3,0.9l-0.5,0.8
		L136.1,143.2z"/>
	<path class="st4" d="M136,141.5h1.3l0.6,1.1l-0.6,1.1H136l-0.6-1.1L136,141.5z M136.7,143.2c0.3,0,0.6-0.3,0.6-0.6
		c0-0.3-0.3-0.6-0.6-0.6c-0.3,0-0.6,0.3-0.6,0.6l0,0C136.1,143,136.4,143.2,136.7,143.2L136.7,143.2L136.7,143.2z"/>
	<path class="st4" d="M111.5,145.3h1.5c0.4,0,0.7-0.3,0.7-0.7l0,0c0-0.4-0.3-0.7-0.7-0.7h-1.5c-0.4,0-0.7,0.3-0.7,0.7l0,0l0,0
		C110.8,144.9,111.2,145.3,111.5,145.3L111.5,145.3z"/>
	<path class="st5" d="M109.2,144c0.4-0.7,1.3-0.9,2-0.6s0.9,1.3,0.6,2s-1.2,0.9-1.8,0.6C109.1,145.6,108.8,144.7,109.2,144z"/>
	
		<rect x="108.9" y="144.4" transform="matrix(0.4264 -0.9045 0.9045 0.4264 -67.3924 182.8784)" class="st4" width="3.2" height="0.4"/>
</g>
<rect x="30.2" y="-0.8" class="st10" width="102.3" height="28"/>
<text transform="matrix(1 0 0 1 64.624 8.812)" class="st4 st11 st12">Oops! </text>
<text transform="matrix(1 0 0 1 31.356 24.1665)" class="st4 st11 st12">Unexpected Error</text>
</svg>
